<?xml version="1.0" standalone="no"?>
<!DOCTYPE svg PUBLIC "-//W3C//DTD SVG 20010904//EN"
 "http://www.w3.org/TR/2001/REC-SVG-20010904/DTD/svg10.dtd">
<svg version="1.0" xmlns="http://www.w3.org/2000/svg"
 width="478.000000pt" height="478.000000pt" viewBox="0 0 478.000000 478.000000"
 preserveAspectRatio="xMidYMid meet">
<metadata>
Created by potrace 1.14, written by Peter Selinger 2001-2017
</metadata>
<g transform="translate(0.000000,478.000000) scale(0.100000,-0.100000)"
fill="#000000" stroke="none">
<path d="M1 3548 c0 -678 3 -1226 6 -1218 3 8 30 66 60 128 30 62 53 118 50
125 -2 7 -14 -7 -26 -31 -12 -23 -23 -42 -25 -42 -3 0 7 54 29 156 4 16 7 37
6 47 0 20 2 19 67 -35 18 -16 38 -26 43 -22 5 3 -12 22 -38 42 -60 45 -65 51
-57 82 3 14 8 39 11 55 4 29 16 99 48 283 9 48 25 134 36 192 28 141 45 233
69 365 25 137 40 222 75 400 31 166 41 219 89 475 20 107 39 203 42 213 5 16
-11 17 -240 17 l-246 0 1 -1232z"/>
<path d="M1336 4753 c-3 -16 -8 -49 -12 -74 -8 -62 -14 -70 -65 -76 -24 -3
-50 -10 -56 -16 -9 -6 -13 -6 -13 2 0 7 -4 10 -9 6 -6 -3 -8 -15 -6 -26 3 -15
0 -19 -11 -15 -9 3 -19 6 -22 6 -4 0 0 5 8 11 13 9 12 10 -2 5 -10 -3 -37 3
-60 14 -79 34 -159 45 -224 31 -125 -28 -170 -90 -239 -326 -42 -146 -89 -494
-106 -785 -6 -111 -14 -187 -21 -191 -6 -4 -28 -10 -49 -13 -22 -3 -39 -10
-39 -15 0 -14 71 -73 79 -66 3 4 -7 17 -24 30 -34 28 -34 27 21 43 l41 12 7
142 c11 222 16 279 42 488 53 412 121 596 240 650 77 35 214 18 304 -39 91
-56 376 -330 456 -437 16 -21 40 -50 52 -64 13 -14 42 -53 65 -88 34 -53 45
-62 63 -58 18 5 23 1 26 -16 4 -22 5 -22 18 5 16 34 63 38 80 7 14 -27 43 -25
55 3 8 17 19 23 52 24 35 2 49 -3 78 -28 l35 -31 11 26 c12 25 42 35 53 18 3
-5 61 -12 128 -15 154 -7 374 -50 474 -92 42 -17 73 -20 58 -5 -12 12 -183 63
-269 81 -33 7 -64 16 -69 20 -9 8 -9 117 -1 160 2 11 9 75 15 142 9 108 30
338 44 482 2 28 8 60 11 73 l7 22 -610 0 -610 0 -6 -27z m-96 -248 c13 -14 21
-25 18 -25 -2 0 -15 11 -28 25 -13 14 -21 25 -18 25 2 0 15 -11 28 -25z m670
-591 c0 -8 -4 -12 -10 -9 -5 3 -10 10 -10 16 0 5 5 9 10 9 6 0 10 -7 10 -16z
m190 -5 c0 -6 -4 -7 -10 -4 -5 3 -10 11 -10 16 0 6 5 7 10 4 6 -3 10 -11 10
-16z"/>
<path d="M4403 4743 c11 -77 43 -260 84 -483 8 -47 16 -96 18 -110 2 -14 14
-88 28 -165 14 -77 30 -176 37 -220 6 -44 15 -98 20 -120 5 -22 19 -98 30
-170 11 -71 25 -150 30 -175 5 -25 17 -92 26 -150 48 -312 85 -515 94 -524 19
-19 10 166 -15 309 -40 224 -65 366 -75 425 -4 30 -16 96 -25 145 -9 50 -21
121 -26 160 -5 38 -11 77 -14 86 -7 20 -23 110 -35 194 -5 33 -16 101 -25 150
-9 50 -23 131 -30 180 -14 95 -71 431 -81 478 -4 19 -12 27 -26 27 -18 0 -19
-5 -15 -37z"/>
<path d="M4126 4543 c-3 -10 -6 -102 -8 -204 l-2 -186 -38 25 c-130 86 -329
24 -663 -206 -147 -102 -391 -301 -369 -302 6 0 31 17 55 38 83 73 204 168
289 228 76 54 107 74 208 135 67 40 211 109 247 118 22 6 67 11 101 11 49 0
68 -5 106 -29 68 -43 97 -99 104 -202 7 -96 -8 -266 -36 -407 -10 -53 -35
-178 -54 -277 -36 -182 -95 -406 -122 -459 -19 -39 -19 -39 16 -54 33 -15 40
-42 11 -42 -26 0 -51 -10 -51 -21 0 -14 28 -11 60 6 38 20 38 39 0 62 -17 9
-28 22 -26 28 16 36 79 247 100 335 13 58 29 123 34 145 7 29 9 -14 6 -153 -5
-214 -3 -226 106 -552 10 -30 32 -102 50 -160 54 -180 102 -334 110 -355 5
-11 17 -49 28 -85 15 -52 24 -66 43 -70 l24 -6 5 -394 5 -395 33 -87 c36 -94
50 -112 77 -102 14 6 16 15 11 53 -3 25 -12 51 -19 56 -8 6 -24 39 -36 74 -21
61 -22 77 -20 392 1 239 5 334 14 346 14 19 35 9 35 -18 0 -20 10 -23 48 -13
19 6 22 13 22 58 0 29 -6 61 -14 72 -36 51 -46 147 -46 434 0 196 3 281 11
286 8 4 9 27 5 70 -9 83 -13 94 -42 94 -18 0 -24 -6 -26 -22 0 -13 -2 -198 -2
-413 l-1 -390 -30 0 c-24 0 -31 5 -33 25 -2 14 -10 32 -17 40 -7 8 -21 40 -30
70 -20 67 -64 210 -80 265 -7 22 -16 56 -20 75 -4 19 -22 82 -40 140 -19 58
-41 130 -50 160 -48 162 -47 139 -41 610 6 519 15 895 22 928 3 13 9 20 16 16
7 -5 9 4 5 27 -4 19 -12 71 -18 117 -11 80 -12 82 -40 82 -18 0 -30 -6 -33
-17z"/>
<path d="M865 4343 c6 -6 34 -18 63 -28 29 -9 73 -28 98 -42 46 -26 74 -25 38
1 -39 29 -222 92 -199 69z"/>
<path d="M951 4216 c4 -5 210 -86 216 -86 2 0 3 7 3 15 0 8 -8 15 -17 15 -10
0 -56 14 -103 30 -81 28 -109 35 -99 26z"/>
<path d="M1030 4093 c0 -4 13 -17 29 -28 150 -105 184 -126 194 -122 6 2 -11
16 -38 32 -28 16 -75 47 -105 70 -68 51 -80 58 -80 48z"/>
<path d="M3927 4005 c-15 -14 -66 -48 -112 -76 -47 -29 -85 -54 -85 -56 0 -1
6 -3 13 -3 18 0 227 139 227 151 0 15 -13 10 -43 -16z"/>
<path d="M1085 3934 c74 -68 240 -204 250 -204 17 0 -5 22 -80 78 -44 34 -109
88 -145 122 -35 33 -69 60 -75 60 -5 -1 17 -26 50 -56z"/>
<path d="M1135 3946 c53 -24 126 -43 110 -27 -12 10 -134 51 -149 50 -6 0 12
-11 39 -23z"/>
<path d="M3963 3938 c-46 -32 -41 -42 7 -18 23 12 38 25 35 30 -8 13 -5 14
-42 -12z"/>
<path d="M3659 3806 c-42 -28 -84 -56 -95 -62 -10 -7 -16 -15 -12 -19 4 -4 26
6 50 22 24 16 64 44 90 62 46 31 68 52 51 50 -4 -1 -42 -24 -84 -53z"/>
<path d="M2872 3786 c-7 -16 -10 -31 -7 -34 3 -3 28 4 55 15 55 23 61 21 29
-13 -13 -13 -17 -24 -10 -28 11 -7 68 71 59 80 -3 2 -28 -4 -56 -15 l-51 -20
-3 22 c-3 20 -4 19 -16 -7z"/>
<path d="M2995 3760 c-16 -16 -25 -33 -22 -37 4 -3 14 2 21 13 19 25 31 12 16
-16 -13 -25 -4 -42 10 -20 9 14 14 90 7 90 -2 0 -16 -13 -32 -30z"/>
<path d="M1014 3698 c3 -29 9 -81 12 -115 4 -35 11 -63 15 -63 12 0 11 39 -2
99 -6 27 -9 62 -7 77 l3 26 64 -51 c87 -70 100 -70 52 1 -18 27 -25 44 -18 46
7 1 46 -4 87 -12 70 -13 91 -13 78 -1 -6 6 -164 35 -191 35 -17 0 -17 -2 3
-35 12 -19 19 -35 16 -35 -2 0 -26 18 -51 40 -25 22 -51 40 -56 40 -7 0 -9
-20 -5 -52z"/>
<path d="M3553 3657 c-17 -12 -54 -33 -82 -47 -44 -20 -66 -40 -44 -40 14 0
163 92 163 101 0 13 -2 12 -37 -14z"/>
<path d="M906 3633 c-2 -10 -7 -34 -11 -53 -4 -19 -9 -43 -11 -52 -3 -10 -1
-18 5 -18 5 0 15 25 21 55 6 30 13 55 15 55 3 0 16 -25 30 -55 23 -48 45 -78
45 -60 0 15 -71 145 -79 145 -6 0 -12 -8 -15 -17z"/>
<path d="M816 3517 c-38 -120 -42 -167 -8 -86 25 60 55 175 49 191 -2 7 -21
-40 -41 -105z"/>
<path d="M3438 3542 c-37 -16 -55 -38 -21 -25 11 4 14 3 9 -5 -4 -7 -13 -12
-20 -12 -7 0 -21 -9 -31 -20 -31 -35 3 -23 66 23 79 57 78 74 -3 39z"/>
<path d="M3515 3488 c-34 -9 -87 -47 -67 -48 7 0 24 7 38 16 33 22 41 11 21
-31 -9 -20 -17 -43 -17 -53 1 -9 14 12 31 47 16 36 28 68 27 71 -2 4 -16 3
-33 -2z"/>
<path d="M3590 3369 c-6 -24 -15 -56 -20 -71 -5 -16 -5 -28 0 -28 5 0 11 8 13
18 25 94 29 113 24 118 -3 3 -11 -14 -17 -37z"/>
<path d="M3645 3313 c-4 -27 -10 -63 -15 -80 -8 -32 2 -54 15 -33 9 14 20 160
12 160 -3 0 -9 -21 -12 -47z"/>
<path d="M4370 3302 c0 -23 4 -42 8 -42 10 0 9 66 -1 76 -4 4 -7 -11 -7 -34z"/>
<path d="M3731 3173 c-1 -49 3 -83 9 -83 12 0 12 103 0 140 -5 17 -8 -1 -9
-57z"/>
<path d="M4380 3170 c0 -36 5 -72 10 -80 11 -18 12 -13 10 60 -3 82 -19 99
-20 20z"/>
<path d="M400 3207 c35 -20 78 -29 85 -18 6 11 -11 17 -70 26 -38 6 -39 5 -15
-8z"/>
<path d="M355 3125 c17 -14 40 -25 53 -25 31 0 19 17 -18 25 -16 4 -32 11 -35
16 -4 5 -12 9 -18 9 -7 -1 2 -12 18 -25z"/>
<path d="M337 3070 c-20 -4 -40 -10 -43 -13 -6 -6 45 -56 58 -57 20 -1 14 19
-10 30 l-27 13 43 9 c23 5 42 13 42 19 0 10 -8 10 -63 -1z"/>
<path d="M3795 3043 c2 -16 4 -36 4 -46 1 -10 5 -15 11 -12 5 3 8 20 6 38 -3
18 -5 35 -5 40 -1 4 -5 7 -10 7 -5 0 -8 -12 -6 -27z"/>
<path d="M1472 2939 c-24 -12 -60 -42 -80 -66 -20 -25 -54 -65 -75 -88 -49
-56 -46 -78 15 -121 77 -54 158 -77 258 -72 108 5 145 23 234 110 l69 67 -53
61 c-89 103 -116 116 -250 125 -63 5 -82 2 -118 -16z m46 -71 c27 -27 -1 -73
-35 -61 -24 9 -9 73 17 73 3 0 11 -5 18 -12z"/>
<path d="M230 2881 c0 -11 47 -31 70 -31 18 0 30 20 13 20 -5 0 -25 4 -45 9
-21 5 -38 6 -38 2z"/>
<path d="M150 2790 c0 -8 69 -30 94 -30 19 0 22 20 4 20 -7 1 -32 5 -55 9 -24
5 -43 5 -43 1z"/>
<path d="M3028 2641 c-59 -23 -128 -77 -128 -99 0 -16 67 -99 164 -203 47 -50
72 -59 170 -59 120 0 184 35 172 94 -10 49 -64 156 -102 203 -20 24 -53 52
-74 63 -50 25 -138 26 -202 1z m79 -62 c14 -14 6 -39 -12 -39 -7 0 -18 7 -25
15 -22 26 12 49 37 24z"/>
<path d="M2280 2640 c-70 -9 -101 -22 -138 -58 -36 -35 -47 -82 -38 -154 12
-84 37 -121 118 -171 40 -24 94 -52 121 -62 l47 -18 0 -72 c0 -69 -21 -167
-42 -192 -6 -8 -25 -10 -51 -7 -56 8 -336 -40 -396 -67 -187 -84 -271 -79
-373 23 -58 58 -67 77 -94 203 -12 52 -32 55 -78 12 -66 -62 -45 -121 82 -238
33 -31 82 -67 109 -80 62 -30 170 -37 244 -16 29 9 55 14 58 12 2 -3 8 -58 12
-123 24 -349 52 -451 147 -546 65 -66 140 -99 233 -104 113 -6 178 16 243 81
91 92 143 217 181 440 10 53 19 97 22 97 2 0 14 -7 26 -15 50 -32 142 -57 214
-57 132 0 251 81 287 196 35 111 9 119 -65 21 -76 -102 -119 -144 -159 -155
-49 -14 -158 -12 -202 4 -48 17 -220 143 -383 281 l-24 20 24 75 c15 46 25 99
25 136 l0 61 63 6 c235 22 322 234 159 390 -61 59 -235 95 -372 77z m-8 -840
c4 -25 13 -92 20 -150 l12 -105 12 41 c7 23 18 84 25 135 7 52 14 96 16 98 6
8 73 -34 73 -46 0 -6 5 -15 12 -19 7 -4 8 -3 4 4 -12 20 2 14 57 -25 141 -99
157 -114 157 -148 0 -43 -36 -227 -56 -285 -28 -84 -79 -172 -126 -220 -62
-64 -121 -83 -231 -78 -99 4 -160 30 -229 99 -95 95 -117 182 -144 571 l-6 97
38 16 c86 36 229 64 314 61 l45 -1 7 -45z"/>
<path d="M3990 2548 c-69 -36 -86 -53 -46 -44 16 4 45 19 65 34 20 14 38 27
40 29 2 2 2 5 0 7 -2 2 -29 -9 -59 -26z"/>
<path d="M3972 2478 c5 -13 56 -46 73 -47 6 0 -6 13 -25 29 -37 31 -54 38 -48
18z"/>
<path d="M4025 2384 c-22 -13 -44 -26 -50 -28 -5 -2 -7 -7 -2 -11 8 -9 39 6
76 36 35 29 22 31 -24 3z"/>
<path d="M4028 2227 c-32 -11 -58 -25 -58 -30 0 -13 41 -1 91 28 53 30 43 31
-33 2z"/>
<path d="M4774 1970 c0 -129 2 -182 3 -117 2 64 2 170 0 235 -1 64 -3 11 -3
-118z"/>
<path d="M4000 2125 c-16 -19 6 -47 51 -65 34 -15 38 -32 7 -30 -13 1 -34 1
-48 0 -20 -1 -21 -3 -8 -8 21 -9 118 -3 118 7 0 4 -15 15 -32 26 -18 10 -45
29 -61 41 l-27 23 47 6 c77 10 81 13 22 14 -40 1 -60 -4 -69 -14z"/>
<path d="M4026 1941 c-3 -4 7 -14 22 -22 15 -7 29 -15 31 -16 3 -2 -5 -13 -16
-26 -19 -21 -19 -26 -7 -142 33 -301 8 -657 -58 -810 -17 -38 -52 -114 -79
-168 -41 -81 -47 -102 -38 -119 17 -32 50 -131 44 -136 -2 -2 -26 14 -53 37
-81 67 -88 55 -37 -67 15 -35 25 -65 23 -68 -2 -2 -24 10 -48 26 -25 17 -48
30 -53 30 -9 0 3 -109 14 -130 5 -10 9 4 9 38 0 28 4 52 8 52 4 0 29 -13 55
-30 26 -16 47 -28 47 -26 0 1 -13 40 -30 86 -16 46 -30 85 -30 87 0 10 23 -1
64 -33 26 -20 50 -34 53 -31 3 3 -8 47 -25 97 l-30 91 63 132 c35 73 70 153
78 178 47 140 68 506 43 739 -15 141 -15 145 4 165 11 12 20 24 20 27 0 11
-69 47 -74 39z"/>
<path d="M4771 1714 c0 -11 3 -14 6 -6 3 7 2 16 -1 19 -3 4 -6 -2 -5 -13z"/>
<path d="M3706 322 c-6 -10 55 -192 65 -192 4 0 -1 24 -10 53 -37 105 -35 131
4 87 10 -11 20 -18 22 -16 5 5 -59 76 -69 76 -4 0 -9 -3 -12 -8z"/>
<path d="M3580 122 c0 -11 44 -27 100 -36 35 -6 35 -6 -9 14 -58 27 -91 35
-91 22z"/>
<path d="M3583 3 c9 -2 23 -2 30 0 6 3 -1 5 -18 5 -16 0 -22 -2 -12 -5z"/>
</g>
</svg>
